<svg width="640" height="180" viewBox="0 0 640 180" fill="none" xmlns="http://www.w3.org/2000/svg">
  <defs>
    <linearGradient id="g1" x1="70" y1="30" x2="140" y2="140" gradientUnits="userSpaceOnUse">
      <stop stop-color="#67E8F9"/>
      <stop offset="1" stop-color="#3B82F6"/>
    </linearGradient>
    <linearGradient id="g2" x1="0" y1="0" x2="1" y2="1">
      <stop stop-color="#A5F3FC"/>
      <stop offset="1" stop-color="#5EEAD4"/>
    </linearGradient>
    <filter id="glow" x="0" y="0" width="220" height="180" filterUnits="userSpaceOnUse" color-interpolation-filters="sRGB">
      <feGaussianBlur stdDeviation="8" result="blur"/>
      <feMerge>
        <feMergeNode in="blur"/>
        <feMergeNode in="SourceGraphic"/>
      </feMerge>
    </filter>
  </defs>

  <g filter="url(#glow)">
    <rect x="40" y="34" width="88" height="112" rx="26" fill="url(#g1)" fill-opacity="0.18" stroke="url(#g1)" stroke-width="2"/>
    <path d="M76 63C76 56.3726 81.3726 51 88 51H114C120.627 51 126 56.3726 126 63V77C126 83.6274 120.627 89 114 89H102L88 103V89C81.3726 89 76 83.6274 76 77V63Z" fill="url(#g1)"/>
    <path d="M90 69H112" stroke="#E6FFFE" stroke-width="4" stroke-linecap="round"/>
    <path d="M90 78H105" stroke="#E6FFFE" stroke-width="4" stroke-linecap="round" opacity="0.92"/>
    <circle cx="144" cy="54" r="9" fill="url(#g2)"/>
  </g>

  <path d="M196.4 120.2C184.8 120.2 175.333 117.067 168 110.8C160.8 104.533 156.467 95.9333 155 85H181.8C183.133 89.4 185.8 92.8667 189.8 95.4C193.8 97.8 198.667 99 204.4 99C209.333 99 213.067 98.0667 215.6 96.2C218.267 94.2 219.6 91.8 219.6 89C219.6 85.4 217.667 82.8 213.8 81.2C209.933 79.4667 203.667 77.6 195 75.6C185.667 73.4667 177.933 71.2667 171.8 69C165.8 66.6 160.533 62.9333 156 58C151.6 53.0667 149.4 46.4 149.4 38C149.4 31.0667 151.333 24.8 155.2 19.2C159.2 13.4667 164.933 8.93333 172.4 5.6C180 2.13333 188.933 0.4 199.2 0.4C214.4 0.4 226.4 4.2 235.2 11.8C244 19.2667 249.067 29.4667 250.4 42.4H225.4C224.733 37.8667 222.4 34.3333 218.4 31.8C214.533 29.1333 209.4 27.8 203 27.8C198.333 27.8 194.733 28.6667 192.2 30.4C189.8 32.1333 188.6 34.4 188.6 37.2C188.6 40.9333 190.533 43.6667 194.4 45.4C198.4 47.1333 204.667 48.8667 213.2 50.6C222.267 52.7333 229.8 55 235.8 57.4C241.8 59.6667 247 63.4 251.4 68.6C255.933 73.6667 258.267 80.5333 258.4 89.2C258.4 96.2667 256.4 102.6 252.4 108.2C248.4 113.8 242.6 118.2 235 121.4C227.533 124.6 218 126.2 206.4 126.2H196.4Z" fill="white"/>
  <path d="M308.907 126V47.6H279.907V22.6H365.907V47.6H336.907V126H308.907Z" fill="white"/>
  <path d="M412.205 126C401.005 126 390.938 123.533 382.005 118.6C373.205 113.533 366.271 106.4 361.205 97.2C356.271 87.8667 353.805 77 353.805 64.6C353.805 52.3333 356.338 41.6 361.405 32.4C366.605 23.0667 373.671 15.8667 382.605 10.8C391.671 5.73333 401.805 3.2 413.005 3.2C424.205 3.2 434.271 5.73333 443.205 10.8C452.138 15.8667 459.138 23.0667 464.205 32.4C469.405 41.6 472.005 52.3333 472.005 64.6C472.005 76.8667 469.338 87.6667 464.005 97C458.805 106.333 451.671 113.533 442.605 118.6C433.671 123.533 423.538 126 412.205 126ZM412.205 101.8C418.871 101.8 424.605 100.267 429.405 97.2C434.338 94 438.205 89.4 441.005 83.4C443.805 77.4 445.205 71.1333 445.205 64.6C445.205 54.7333 442.605 46.9333 437.405 41.2C432.338 35.3333 425.538 32.4 417.005 32.4C408.471 32.4 401.605 35.3333 396.405 41.2C391.338 46.9333 388.805 54.7333 388.805 64.6C388.805 74.3333 391.271 82.1333 396.205 88C401.271 93.8667 406.605 97.8667 412.205 101.8Z" fill="white"/>
  <path d="M487.248 126V5.2H515.248V126H487.248Z" fill="white"/>
  <path d="M532.571 126V5.2H560.571V126H532.571Z" fill="white"/>
  <path d="M579.894 126V22.6H607.894V126H579.894ZM593.894 11.8C588.961 11.8 584.894 10.3333 581.694 7.4C578.628 4.33333 577.094 0.533333 577.094 -4C577.094 -8.53333 578.628 -12.2667 581.694 -15.2C584.894 -18.2667 588.961 -19.8 593.894 -19.8C598.694 -19.8 602.628 -18.2667 605.694 -15.2C608.894 -12.2667 610.494 -8.53333 610.494 -4C610.494 0.533333 608.894 4.33333 605.694 7.4C602.628 10.3333 598.694 11.8 593.894 11.8Z" fill="white"/>
</svg>
